<svg xmlns="http://www.w3.org/2000/svg" width="549.999" height="100" viewBox="0 0 549.999 100">
  <g id="logoipsum" transform="translate(3551 11287)">
    <g id="Grupo_1461" data-name="Grupo 1461" transform="translate(-3550.94 -11287)">
      <path id="Trazado_1133" data-name="Trazado 1133" d="M49.964,100a50,50,0,0,0,50-50V15a15,15,0,0,0-15-15h-32.5V21.935c0,5,.305,10.19,2.93,14.45a25,25,0,0,0,17.26,11.567l.957.155a2,2,0,0,1,0,3.785l-.957.155A25,25,0,0,0,52.011,72.69l-.155.957a2,2,0,0,1-3.785,0l-.155-.957A25,25,0,0,0,36.349,55.43C32.089,52.8,26.9,52.5,21.9,52.5H.024A50.007,50.007,0,0,0,49.964,100Z" transform="translate(-0.024)" fill="#6bc1ff"/>
      <path id="Trazado_1134" data-name="Trazado 1134" d="M337.861,24.26c13.977,0,20.722,9.762,20.722,21.07V66.567H343.956V47.85c0-5.125-1.87-9.355-7.233-9.355s-7.15,4.23-7.15,9.355V66.565H314.946V47.85c0-5.125-1.787-9.355-7.152-9.355s-7.233,4.23-7.233,9.355V66.565H285.936V45.327c0-11.307,6.743-21.07,20.72-21.07,7.64,0,13.165,3.01,15.685,7.972,2.68-4.962,8.532-7.975,15.52-7.975Zm-78.21,29.29c4.712,0,6.745-4.312,6.745-9.44V25.885h14.625V45.9c0,11.96-6.987,21.887-21.37,21.887S238.278,57.862,238.278,45.9V25.885h14.627V44.11C252.906,49.235,254.936,53.55,259.651,53.55Zm-42.88,14.317c-9.182,0-15.115-3.173-18.61-9.355l10.565-5.94c1.463,2.6,3.655,3.9,7.312,3.9,3.008,0,4.388-1.058,4.388-2.36,0-4.962-21.452.083-21.452-15.7,0-7.65,6.5-13.832,17.552-13.832,9.67,0,14.952,4.717,17.31,9.275l-10.565,6.02c-.893-2.44-3.657-3.9-6.42-3.9-2.112,0-3.25.895-3.25,2.115,0,5.045,21.452.408,21.452,15.7C235.053,62.335,226.683,67.867,216.771,67.867Zm-51.1,17.412H151.038V46.145c0-12.45,9.345-21.48,22.347-21.48,12.677,0,22.347,9.682,22.347,21.48,0,13.017-8.615,21.642-21.535,21.642a18.034,18.034,0,0,1-8.532-2.28V85.28Zm7.72-31.242a7.588,7.588,0,0,0,7.72-7.812,7.721,7.721,0,1,0-15.44,0A7.587,7.587,0,0,0,173.386,54.037Zm-37-32.462a8.787,8.787,0,1,1,8.777-8.787A8.849,8.849,0,0,1,136.386,21.575Zm-7.313,4.31H143.7V66.567H129.073Z" transform="translate(191.356 6)" fill="#6bc1ff"/>
    </g>
    <g id="Grupo_1462" data-name="Grupo 1462" transform="translate(-3551 -11287)">
      <path id="Trazado_1134-2" data-name="Trazado 1134" d="M0,47.5H21.935c5,0,10.19-.3,14.45-2.93a25.045,25.045,0,0,0,8.185-8.185c2.625-4.26,2.93-9.445,2.93-14.45V0H15A15,15,0,0,0,0,15ZM116.137,5a5,5,0,1,1-5-5,5,5,0,0,1,5,5ZM292.424,73.787c-12.677,0-22.348-9.762-22.348-21.642,0-11.8,9.67-21.56,22.348-21.56s22.347,9.762,22.347,21.56C314.772,64.025,305.1,73.787,292.424,73.787Zm0-13.75a7.852,7.852,0,1,0-7.72-7.812A7.588,7.588,0,0,0,292.424,60.037ZM242.457,92.5c-10.075,0-17.39-4.475-21.127-12.45l12.107-6.507a9.043,9.043,0,0,0,8.775,5.615c5.285,0,8.777-3.337,9.185-9.195-1.95,1.71-5.04,3.01-9.67,3.01-11.3,0-20.4-8.7-20.4-20.91,0-11.795,9.673-21.4,22.35-21.4,13,0,22.347,9.032,22.347,21.48v16.11c0,14.645-10.16,24.245-23.567,24.245Zm.975-33.275c4.387,0,7.72-3.012,7.72-7.487,0-4.392-3.33-7.322-7.72-7.322-4.307,0-7.72,2.93-7.72,7.325a7.368,7.368,0,0,0,7.72,7.482ZM196.517,73.787c-12.677,0-22.35-9.762-22.35-21.642,0-11.8,9.673-21.56,22.35-21.56s22.347,9.762,22.347,21.56c0,11.88-9.672,21.642-22.35,21.642Zm0-13.75a7.852,7.852,0,1,0-7.72-7.812A7.588,7.588,0,0,0,196.517,60.037ZM147.532,17.65V58.735H171.75V72.567H145.5c-9.262,0-13-4.882-13-12.612V17.65Z" fill="#2b3649"/>
    </g>
  </g>
</svg>
